<svg width="58" height="503" viewBox="0 0 58 503" fill="none" xmlns="http://www.w3.org/2000/svg">
<line x1="15.0043" y1="474.289" x2="29.8535" y2="459.439" stroke="#C9AB82"/>
<line y1="-0.5" x2="40" y2="-0.5" transform="matrix(0.707107 0.707107 0.707107 -0.707107 1.35785 460.642)" stroke="#C9AB82"/>
<line x1="29.0043" y1="489.289" x2="57.2886" y2="461.004" stroke="#C9AB82"/>
<line y1="-0.5" x2="21" y2="-0.5" transform="matrix(0.707107 0.707107 0.707107 -0.707107 29.3578 459.642)" stroke="#C9AB82"/>
<line x1="1.0043" y1="460.289" x2="29.2886" y2="432.004" stroke="#C9AB82"/>
<line y1="-0.5" x2="40" y2="-0.5" transform="matrix(0.707107 0.707107 0.707107 -0.707107 1.35785 431.642)" stroke="#C9AB82"/>
<line x1="29.0043" y1="460.289" x2="57.2886" y2="432.004" stroke="#C9AB82"/>
<line y1="-0.5" x2="40" y2="-0.5" transform="matrix(0.707107 0.707107 0.707107 -0.707107 29.3578 431.642)" stroke="#C9AB82"/>
<line x1="1.0043" y1="431.289" x2="29.2886" y2="403.004" stroke="#C9AB82"/>
<line y1="-0.5" x2="40" y2="-0.5" transform="matrix(0.707107 0.707107 0.707107 -0.707107 1.35785 402.642)" stroke="#C9AB82"/>
<line x1="1.0043" y1="402.289" x2="29.2886" y2="374.004" stroke="#C9AB82"/>
<line y1="-0.5" x2="40" y2="-0.5" transform="matrix(0.707107 0.707107 0.707107 -0.707107 1.35785 373.642)" stroke="#C9AB82"/>
<line x1="1.0043" y1="373.289" x2="29.2886" y2="345.004" stroke="#C9AB82"/>
<line y1="-0.5" x2="20" y2="-0.5" transform="matrix(0.707107 0.707107 0.707107 -0.707107 15.3578 359.642)" stroke="#C9AB82"/>
<line x1="29.0043" y1="431.289" x2="57.2886" y2="403.004" stroke="#C9AB82"/>
<line y1="-0.5" x2="40" y2="-0.5" transform="matrix(0.707107 0.707107 0.707107 -0.707107 29.3578 402.642)" stroke="#C9AB82"/>
<line x1="29.0043" y1="402.289" x2="57.2886" y2="374.004" stroke="#C9AB82"/>
<line y1="-0.5" x2="40" y2="-0.5" transform="matrix(0.707107 0.707107 0.707107 -0.707107 29.3578 373.642)" stroke="#C9AB82"/>
<line x1="29.0043" y1="374.289" x2="43.8535" y2="359.439" stroke="#C9AB82"/>
<line y1="-0.5" x2="40" y2="-0.5" transform="matrix(0.707107 0.707107 0.707107 -0.707107 29.3578 344.642)" stroke="#C9AB82"/>
<line x1="14.6464" y1="359.646" x2="29.4957" y2="344.797" stroke="#C9AB82"/>
<line y1="-0.5" x2="40" y2="-0.5" transform="matrix(0.707107 0.707107 0.707107 -0.707107 1 346)" stroke="#C9AB82"/>
<line x1="28.6464" y1="374.646" x2="56.9307" y2="346.362" stroke="#C9AB82"/>
<line y1="-0.5" x2="21" y2="-0.5" transform="matrix(0.707107 0.707107 0.707107 -0.707107 29 345)" stroke="#C9AB82"/>
<line x1="0.646447" y1="345.646" x2="28.9307" y2="317.362" stroke="#C9AB82"/>
<line y1="-0.5" x2="40" y2="-0.5" transform="matrix(0.707107 0.707107 0.707107 -0.707107 1 317)" stroke="#C9AB82"/>
<line x1="28.6464" y1="345.646" x2="56.9307" y2="317.362" stroke="#C9AB82"/>
<line y1="-0.5" x2="40" y2="-0.5" transform="matrix(0.707107 0.707107 0.707107 -0.707107 29 317)" stroke="#C9AB82"/>
<line x1="0.646447" y1="316.646" x2="28.9307" y2="288.362" stroke="#C9AB82"/>
<line y1="-0.5" x2="40" y2="-0.5" transform="matrix(0.707107 0.707107 0.707107 -0.707107 1 288)" stroke="#C9AB82"/>
<line x1="0.646447" y1="287.646" x2="28.9307" y2="259.362" stroke="#C9AB82"/>
<line y1="-0.5" x2="40" y2="-0.5" transform="matrix(0.707107 0.707107 0.707107 -0.707107 1 259)" stroke="#C9AB82"/>
<line x1="0.646447" y1="258.646" x2="28.9307" y2="230.362" stroke="#C9AB82"/>
<line y1="-0.5" x2="20" y2="-0.5" transform="matrix(0.707107 0.707107 0.707107 -0.707107 15 245)" stroke="#C9AB82"/>
<line x1="28.6464" y1="316.646" x2="56.9307" y2="288.362" stroke="#C9AB82"/>
<line y1="-0.5" x2="40" y2="-0.5" transform="matrix(0.707107 0.707107 0.707107 -0.707107 29 288)" stroke="#C9AB82"/>
<line x1="28.6464" y1="287.646" x2="56.9307" y2="259.362" stroke="#C9AB82"/>
<line y1="-0.5" x2="40" y2="-0.5" transform="matrix(0.707107 0.707107 0.707107 -0.707107 29 259)" stroke="#C9AB82"/>
<line x1="28.6464" y1="259.646" x2="43.4957" y2="244.797" stroke="#C9AB82"/>
<line y1="-0.5" x2="40" y2="-0.5" transform="matrix(0.707107 0.707107 0.707107 -0.707107 29 230)" stroke="#C9AB82"/>
<line x1="0.646447" y1="517.646" x2="28.9307" y2="489.362" stroke="#C9AB82"/>
<line y1="-0.5" x2="40" y2="-0.5" transform="matrix(0.707107 0.707107 0.707107 -0.707107 1 489)" stroke="#C9AB82"/>
<line x1="0.646447" y1="488.646" x2="28.9307" y2="460.362" stroke="#C9AB82"/>
<line y1="-0.5" x2="20" y2="-0.5" transform="matrix(0.707107 0.707107 0.707107 -0.707107 15 475)" stroke="#C9AB82"/>
<line x1="28.6464" y1="517.646" x2="56.9307" y2="489.362" stroke="#C9AB82"/>
<line y1="-0.5" x2="40" y2="-0.5" transform="matrix(0.707107 0.707107 0.707107 -0.707107 29 489)" stroke="#C9AB82"/>
<line x1="28.6464" y1="489.646" x2="43.4957" y2="474.797" stroke="#C9AB82"/>
<line y1="-0.5" x2="40" y2="-0.5" transform="matrix(0.707107 0.707107 0.707107 -0.707107 29 460)" stroke="#C9AB82"/>
<line x1="14.6464" y1="244.646" x2="29.4957" y2="229.797" stroke="#C9AB82"/>
<line y1="-0.5" x2="40" y2="-0.5" transform="matrix(0.707107 0.707107 0.707107 -0.707107 1 231)" stroke="#C9AB82"/>
<line x1="28.6464" y1="259.646" x2="56.9307" y2="231.362" stroke="#C9AB82"/>
<line y1="-0.5" x2="21" y2="-0.5" transform="matrix(0.707107 0.707107 0.707107 -0.707107 29 230)" stroke="#C9AB82"/>
<line x1="0.646447" y1="230.646" x2="28.9307" y2="202.362" stroke="#C9AB82"/>
<line y1="-0.5" x2="40" y2="-0.5" transform="matrix(0.707107 0.707107 0.707107 -0.707107 1 202)" stroke="#C9AB82"/>
<line x1="28.6464" y1="230.646" x2="56.9307" y2="202.362" stroke="#C9AB82"/>
<line y1="-0.5" x2="40" y2="-0.5" transform="matrix(0.707107 0.707107 0.707107 -0.707107 29 202)" stroke="#C9AB82"/>
<line x1="0.646447" y1="201.646" x2="28.9307" y2="173.362" stroke="#C9AB82"/>
<line y1="-0.5" x2="40" y2="-0.5" transform="matrix(0.707107 0.707107 0.707107 -0.707107 1 173)" stroke="#C9AB82"/>
<line x1="0.646447" y1="172.646" x2="28.9307" y2="144.362" stroke="#C9AB82"/>
<line y1="-0.5" x2="40" y2="-0.5" transform="matrix(0.707107 0.707107 0.707107 -0.707107 1 144)" stroke="#C9AB82"/>
<line x1="0.646447" y1="143.646" x2="28.9307" y2="115.362" stroke="#C9AB82"/>
<line y1="-0.5" x2="20" y2="-0.5" transform="matrix(0.707107 0.707107 0.707107 -0.707107 15 130)" stroke="#C9AB82"/>
<line x1="28.6464" y1="201.646" x2="56.9307" y2="173.362" stroke="#C9AB82"/>
<line y1="-0.5" x2="40" y2="-0.5" transform="matrix(0.707107 0.707107 0.707107 -0.707107 29 173)" stroke="#C9AB82"/>
<line x1="28.6464" y1="172.646" x2="56.9307" y2="144.362" stroke="#C9AB82"/>
<line y1="-0.5" x2="40" y2="-0.5" transform="matrix(0.707107 0.707107 0.707107 -0.707107 29 144)" stroke="#C9AB82"/>
<line x1="28.6464" y1="144.646" x2="43.4957" y2="129.797" stroke="#C9AB82"/>
<line y1="-0.5" x2="40" y2="-0.5" transform="matrix(0.707107 0.707107 0.707107 -0.707107 29 115)" stroke="#C9AB82"/>
<line x1="14.6464" y1="129.646" x2="29.4957" y2="114.797" stroke="#C9AB82"/>
<line y1="-0.5" x2="40" y2="-0.5" transform="matrix(0.707107 0.707107 0.707107 -0.707107 1 116)" stroke="#C9AB82"/>
<line x1="28.6464" y1="144.646" x2="56.9307" y2="116.362" stroke="#C9AB82"/>
<line y1="-0.5" x2="21" y2="-0.5" transform="matrix(0.707107 0.707107 0.707107 -0.707107 29 115)" stroke="#C9AB82"/>
<line x1="0.646447" y1="115.646" x2="28.9307" y2="87.3622" stroke="#C9AB82"/>
<line y1="-0.5" x2="40" y2="-0.5" transform="matrix(0.707107 0.707107 0.707107 -0.707107 1 87)" stroke="#C9AB82"/>
<line x1="28.6464" y1="115.646" x2="56.9307" y2="87.3622" stroke="#C9AB82"/>
<line y1="-0.5" x2="40" y2="-0.5" transform="matrix(0.707107 0.707107 0.707107 -0.707107 29 87)" stroke="#C9AB82"/>
<line x1="0.646447" y1="86.6464" x2="28.9307" y2="58.3622" stroke="#C9AB82"/>
<line y1="-0.5" x2="40" y2="-0.5" transform="matrix(0.707107 0.707107 0.707107 -0.707107 1 58)" stroke="#C9AB82"/>
<line x1="0.646447" y1="57.6464" x2="28.9307" y2="29.3622" stroke="#C9AB82"/>
<line y1="-0.5" x2="40" y2="-0.5" transform="matrix(0.707107 0.707107 0.707107 -0.707107 1 29)" stroke="#C9AB82"/>
<line x1="0.646447" y1="28.6464" x2="28.9307" y2="0.362176" stroke="#C9AB82"/>
<line y1="-0.5" x2="20" y2="-0.5" transform="matrix(0.707107 0.707107 0.707107 -0.707107 15 15)" stroke="#C9AB82"/>
<line x1="28.6464" y1="86.6464" x2="56.9307" y2="58.3622" stroke="#C9AB82"/>
<line y1="-0.5" x2="40" y2="-0.5" transform="matrix(0.707107 0.707107 0.707107 -0.707107 29 58)" stroke="#C9AB82"/>
<line x1="28.6464" y1="57.6464" x2="56.9307" y2="29.3622" stroke="#C9AB82"/>
<line y1="-0.5" x2="40" y2="-0.5" transform="matrix(0.707107 0.707107 0.707107 -0.707107 29 29)" stroke="#C9AB82"/>
<line x1="28.6464" y1="29.6464" x2="43.4957" y2="14.7972" stroke="#C9AB82"/>
<line y1="-0.5" x2="40" y2="-0.5" transform="matrix(0.707107 0.707107 0.707107 -0.707107 29 0)" stroke="#C9AB82"/>
</svg>
